<svg width="127" height="126" viewBox="0 0 127 126" fill="none" xmlns="http://www.w3.org/2000/svg">
<g filter="url(#filter0_d_245_161)">
<rect x="39" y="20" width="48.96" height="48.96" rx="10" fill="url(#paint0_linear_245_161)"/>
<g clip-path="url(#clip0_245_161)">
<path d="M75.9111 49.8985H74.8273V48.9422H75.9111C76.6761 48.9422 77.3136 48.3047 77.3136 47.5397V40.846C77.3136 39.6347 76.2936 38.6147 75.0823 38.6147H68.0698C66.8586 38.6147 65.8386 39.6347 65.8386 40.846V47.5397C65.8386 48.3047 66.4761 48.9422 67.2411 48.9422H68.3248V49.8985H67.2411C65.9023 49.8985 64.8823 48.8147 64.8823 47.5397V40.846C64.8823 39.061 66.2848 37.6585 68.0698 37.6585H75.1461C76.9311 37.6585 78.3336 39.061 78.3336 40.846V47.5397C78.3336 48.8785 77.2498 49.8985 75.9111 49.8985ZM71.5761 36.6385C69.6636 36.6385 68.0698 35.0447 68.0698 33.1322C68.0698 31.2197 69.6636 29.626 71.5761 29.626C73.4886 29.626 75.0823 31.2197 75.0823 33.1322C75.0823 35.0447 73.5523 36.6385 71.5761 36.6385ZM71.5761 30.646C70.1736 30.646 69.0261 31.7935 69.0261 33.196C69.0261 34.5985 70.1736 35.746 71.5761 35.746C72.9786 35.746 74.1261 34.5985 74.1261 33.196C74.1261 31.7935 72.9786 30.646 71.5761 30.646Z" fill="#F5F5F4"/>
<path d="M73.2336 59.3336C72.5961 59.3336 72.0224 59.0148 71.6399 58.5686C71.2574 59.0148 70.6836 59.3336 70.0461 59.3336C68.8986 59.3336 67.9424 58.3773 67.9424 57.2298V41.6748H68.8986V57.2298C68.8986 57.8673 69.4086 58.3773 70.0461 58.3773C70.6836 58.3773 71.1299 57.8036 71.1299 57.2298V49.4523H72.0861V57.2298C72.0861 57.8673 72.5961 58.3773 73.2336 58.3773C73.8711 58.3773 74.3811 57.8673 74.3811 57.2298V41.6748H75.3374V57.2298C75.3374 58.3773 74.3811 59.3336 73.2336 59.3336Z" fill="#F5F5F4"/>
<path d="M66.3487 52.7035H48.6899V32.686H66.6674V33.6423H49.6462V51.7473H66.3487V52.7035Z" fill="#F5F5F4"/>
<path d="M63.225 41.6108H52.26V42.5671H63.225V41.6108Z" fill="#F5F5F4"/>
<path d="M63.225 44.8623H52.26V45.8186H63.225V44.8623Z" fill="#F5F5F4"/>
<path d="M63.225 48.1772H52.26V49.1335H63.225V48.1772Z" fill="#F5F5F4"/>
</g>
</g>
<defs>
<filter id="filter0_d_245_161" x="0.75" y="0.110001" width="125.46" height="125.46" filterUnits="userSpaceOnUse" color-interpolation-filters="sRGB">
<feFlood flood-opacity="0" result="BackgroundImageFix"/>
<feColorMatrix in="SourceAlpha" type="matrix" values="0 0 0 0 0 0 0 0 0 0 0 0 0 0 0 0 0 0 127 0" result="hardAlpha"/>
<feOffset dy="18.36"/>
<feGaussianBlur stdDeviation="19.125"/>
<feComposite in2="hardAlpha" operator="out"/>
<feColorMatrix type="matrix" values="0 0 0 0 0.0509804 0 0 0 0 0.0470588 0 0 0 0 0.219608 0 0 0 0.15 0"/>
<feBlend mode="normal" in2="BackgroundImageFix" result="effect1_dropShadow_245_161"/>
<feBlend mode="normal" in="SourceGraphic" in2="effect1_dropShadow_245_161" result="shape"/>
</filter>
<linearGradient id="paint0_linear_245_161" x1="39" y1="44.48" x2="87.96" y2="44.48" gradientUnits="userSpaceOnUse">
<stop stop-color="#F8B508"/>
<stop offset="1" stop-color="#F6520E"/>
</linearGradient>
<clipPath id="clip0_245_161">
<rect width="30.6" height="30.6" fill="white" transform="translate(48.1799 29.1797)"/>
</clipPath>
</defs>
</svg>
