<svg width="414" height="414" viewBox="0 0 414 414" fill="none" xmlns="http://www.w3.org/2000/svg">
<path d="M207 287.5C251.459 287.5 287.5 251.459 287.5 207C287.5 162.541 251.459 126.5 207 126.5C162.541 126.5 126.5 162.541 126.5 207C126.5 251.459 162.541 287.5 207 287.5Z" stroke="#20B486" stroke-opacity="0.25"/>
<path d="M207.5 339.5C280.402 339.5 339.5 280.402 339.5 207.5C339.5 134.598 280.402 75.5 207.5 75.5C134.598 75.5 75.5 134.598 75.5 207.5C75.5 280.402 134.598 339.5 207.5 339.5Z" stroke="#20B486" stroke-opacity="0.25"/>
<path d="M207 378.5C301.717 378.5 378.5 301.717 378.5 207C378.5 112.283 301.717 35.5 207 35.5C112.283 35.5 35.5 112.283 35.5 207C35.5 301.717 112.283 378.5 207 378.5Z" stroke="#20B486" stroke-opacity="0.25"/>
<path d="M207 413.5C321.047 413.5 413.5 321.047 413.5 207C413.5 92.9532 321.047 0.5 207 0.5C92.9532 0.5 0.5 92.9532 0.5 207C0.5 321.047 92.9532 413.5 207 413.5Z" stroke="#20B486" stroke-opacity="0.25"/>
<path d="M75 53C72.2386 53 70 50.7614 70 48C70 45.2386 72.2386 43 75 43C77.7614 43 80 45.2386 80 48C80 50.7614 77.7614 53 75 53Z" fill="#7F56D9"/>
</svg>
