<svg width="24" height="25" viewBox="0 0 24 25" fill="none" xmlns="http://www.w3.org/2000/svg">
<g clip-path="url(#clip0_378_320)">
<path fill-rule="evenodd" clip-rule="evenodd" d="M12 0.0957031C5.3724 0.0957031 0 5.4765 0 12.1161C0 17.4261 3.438 21.9321 8.2068 23.5209C8.8068 23.6313 9.0252 23.2605 9.0252 22.9413C9.0252 22.6569 9.0156 21.8997 9.0096 20.8977C5.6712 21.6237 4.9668 19.2861 4.9668 19.2861C4.422 17.8965 3.6348 17.5269 3.6348 17.5269C2.5452 16.7829 3.7176 16.7973 3.7176 16.7973C4.9212 16.8813 5.5548 18.0357 5.5548 18.0357C6.6252 19.8717 8.364 19.3413 9.0468 19.0341C9.1572 18.2577 9.4668 17.7285 9.81 17.4285C7.146 17.1249 4.344 16.0929 4.344 11.4873C4.344 10.1757 4.812 9.1017 5.5788 8.2617C5.4552 7.9581 5.0436 6.7353 5.6964 5.0817C5.6964 5.0817 6.7044 4.7577 8.9964 6.3129C9.97532 6.04592 10.9853 5.90993 12 5.9085C13.02 5.9133 14.046 6.0465 15.0048 6.3129C17.2956 4.7577 18.3012 5.0805 18.3012 5.0805C18.9564 6.7353 18.5436 7.9581 18.4212 8.2617C19.1892 9.1017 19.6548 10.1757 19.6548 11.4873C19.6548 16.1049 16.848 17.1213 14.1756 17.4189C14.6064 17.7897 14.9892 18.5229 14.9892 19.6449C14.9892 21.2505 14.9748 22.5477 14.9748 22.9413C14.9748 23.2629 15.1908 23.6373 15.8004 23.5197C18.19 22.7182 20.2672 21.1861 21.7386 19.1398C23.2099 17.0935 24.001 14.6365 24 12.1161C24 5.4765 18.6264 0.0957031 12 0.0957031Z" fill="#98A2B3"/>
</g>
<defs>
<clipPath id="clip0_378_320">
<rect width="24" height="24" fill="white" transform="translate(0 0.0957031)"/>
</clipPath>
</defs>
</svg>
