<svg width="24" height="25" viewBox="0 0 24 25" fill="none" xmlns="http://www.w3.org/2000/svg">
<path fill-rule="evenodd" clip-rule="evenodd" d="M12 0.0957031C5.37527 0.0957031 0 5.47098 0 12.0957C0 18.7205 5.37527 24.0957 12 24.0957C18.6117 24.0957 24 18.7205 24 12.0957C24 5.47098 18.6117 0.0957031 12 0.0957031ZM19.9262 5.62716C21.3579 7.37119 22.217 9.59678 22.243 12.0046C21.9046 11.9396 18.5206 11.2497 15.1106 11.6792C15.0325 11.51 14.9675 11.3278 14.8894 11.1456C14.6811 10.6511 14.4469 10.1435 14.2126 9.66188C17.9869 8.1261 19.705 5.91349 19.9262 5.62716ZM12 1.86577C14.603 1.86577 16.9848 2.84191 18.7939 4.44278C18.6117 4.70308 17.0629 6.7725 13.4186 8.13908C11.7397 5.05449 9.87855 2.52954 9.5922 2.13909C10.3601 1.95687 11.1671 1.86577 12 1.86577ZM7.63995 2.82889C7.91325 3.19332 9.73538 5.73128 11.4404 8.75078C6.65076 10.0263 2.42083 10.0003 1.96529 10.0003C2.62907 6.82455 4.77657 4.18247 7.63995 2.82889ZM1.74404 12.1088C1.74404 12.0046 1.74404 11.9005 1.74404 11.7964C2.18655 11.8094 7.15835 11.8745 12.2733 10.3387C12.5727 10.9113 12.846 11.497 13.1063 12.0827C12.9761 12.1217 12.8329 12.1608 12.7028 12.1998C7.41865 13.9048 4.60738 18.5642 4.3731 18.9547C2.7462 17.1456 1.74404 14.7378 1.74404 12.1088ZM12 22.3517C9.6312 22.3517 7.44469 21.5447 5.71367 20.1911C5.89588 19.8137 7.97827 15.8051 13.757 13.7877C13.783 13.7747 13.7961 13.7747 13.8221 13.7617C15.2668 17.497 15.8525 20.6336 16.0087 21.5317C14.7722 22.0653 13.4186 22.3517 12 22.3517ZM17.7136 20.5946C17.6096 19.9699 17.0629 16.9764 15.7223 13.2931C18.9371 12.7855 21.7484 13.6185 22.0998 13.7357C21.6573 16.586 20.0173 19.0458 17.7136 20.5946Z" fill="#98A2B3"/>
</svg>
