<svg width="24" height="25" viewBox="0 0 24 25" fill="none" xmlns="http://www.w3.org/2000/svg">
<g clip-path="url(#clip0_378_318)">
<path d="M24 12.0957C24 5.46828 18.6274 0.0957031 12 0.0957031C5.37258 0.0957031 0 5.46828 0 12.0957C0 18.0852 4.3882 23.0497 10.125 23.9499V15.5645H7.07812V12.0957H10.125V9.45195C10.125 6.44445 11.9166 4.7832 14.6576 4.7832C15.9701 4.7832 17.3438 5.01758 17.3438 5.01758V7.9707H15.8306C14.34 7.9707 13.875 8.89578 13.875 9.8457V12.0957H17.2031L16.6711 15.5645H13.875V23.9499C19.6118 23.0497 24 18.0852 24 12.0957Z" fill="#98A2B3"/>
</g>
<defs>
<clipPath id="clip0_378_318">
<rect width="24" height="24" fill="white" transform="translate(0 0.0957031)"/>
</clipPath>
</defs>
</svg>
