<svg width="24" height="25" viewBox="0 0 24 25" fill="none" xmlns="http://www.w3.org/2000/svg">
<g clip-path="url(#clip0_378_315)">
<path d="M22.2234 0.0957031H1.77187C0.792187 0.0957031 0 0.869141 0 1.82539V22.3613C0 23.3176 0.792187 24.0957 1.77187 24.0957H22.2234C23.2031 24.0957 24 23.3176 24 22.366V1.82539C24 0.869141 23.2031 0.0957031 22.2234 0.0957031ZM7.12031 20.5473H3.55781V9.09101H7.12031V20.5473ZM5.33906 7.53008C4.19531 7.53008 3.27188 6.60664 3.27188 5.46758C3.27188 4.32852 4.19531 3.40508 5.33906 3.40508C6.47813 3.40508 7.40156 4.32852 7.40156 5.46758C7.40156 6.60195 6.47813 7.53008 5.33906 7.53008ZM20.4516 20.5473H16.8937V14.9785C16.8937 13.652 16.8703 11.941 15.0422 11.941C13.1906 11.941 12.9094 13.3895 12.9094 14.8848V20.5473H9.35625V9.09101H12.7687V10.6566H12.8156C13.2891 9.75664 14.4516 8.80508 16.1813 8.80508C19.7859 8.80508 20.4516 11.177 20.4516 14.2613V20.5473Z" fill="#98A2B3"/>
</g>
<defs>
<clipPath id="clip0_378_315">
<rect width="24" height="24" fill="white" transform="translate(0 0.0957031)"/>
</clipPath>
</defs>
</svg>
