<svg width="24" height="25" viewBox="0 0 24 25" fill="none" xmlns="http://www.w3.org/2000/svg">
<path d="M7.55016 21.8454C16.6045 21.8454 21.5583 14.3422 21.5583 7.83732C21.5583 7.62638 21.5536 7.41076 21.5442 7.19982C22.5079 6.50292 23.3395 5.63971 24 4.65076C23.1025 5.05006 22.1496 5.31084 21.1739 5.42419C22.2013 4.80837 22.9705 3.84093 23.3391 2.70123C22.3726 3.27402 21.3156 3.67807 20.2134 3.89607C19.4708 3.10702 18.489 2.58458 17.4197 2.40951C16.3504 2.23444 15.2532 2.41651 14.2977 2.92756C13.3423 3.4386 12.5818 4.25016 12.1338 5.23677C11.6859 6.22338 11.5754 7.33007 11.8195 8.38576C9.86249 8.28755 7.94794 7.77916 6.19998 6.89356C4.45203 6.00795 2.90969 4.7649 1.67297 3.24498C1.0444 4.3287 0.852057 5.6111 1.13503 6.83155C1.418 8.052 2.15506 9.11891 3.19641 9.81544C2.41463 9.79062 1.64998 9.58014 0.965625 9.20138V9.26232C0.964925 10.3996 1.3581 11.502 2.07831 12.3822C2.79852 13.2624 3.80132 13.866 4.91625 14.0904C4.19206 14.2886 3.43198 14.3175 2.69484 14.1748C3.00945 15.1529 3.62157 16.0083 4.44577 16.6218C5.26997 17.2352 6.26512 17.5761 7.29234 17.5967C5.54842 18.9666 3.39417 19.7096 1.17656 19.7061C0.783287 19.7055 0.390399 19.6814 0 19.6339C2.25286 21.0792 4.87353 21.8468 7.55016 21.8454Z" fill="#98A2B3"/>
</svg>
