<svg width="32" height="32" viewBox="0 0 32 32" fill="none" xmlns="http://www.w3.org/2000/svg">
<path fill-rule="evenodd" clip-rule="evenodd" d="M26.6667 8.88883C26.6667 8.18159 26.9477 7.50331 27.4478 7.00322C27.9479 6.50312 28.6262 6.22217 29.3334 6.22217C30.0407 6.22217 30.7189 6.50312 31.219 7.00322C31.7191 7.50331 32.0001 8.18159 32.0001 8.88883V26.9359L29.3334 30.9359L26.6667 26.9359V8.88883ZM29.3334 7.99995C29.0977 7.99995 28.8716 8.0936 28.7049 8.2603C28.5382 8.42699 28.4445 8.65309 28.4445 8.88883V26.3973L29.3334 27.7306L30.2223 26.3973V8.88883C30.2223 8.65309 30.1287 8.42699 29.962 8.2603C29.7953 8.0936 29.5692 7.99995 29.3334 7.99995Z" fill="#F6830A"/>
<path fill-rule="evenodd" clip-rule="evenodd" d="M31.1111 12.4444H27.5556V10.6667H31.1111V12.4444ZM3.55556 1.77778C3.08406 1.77778 2.63188 1.96508 2.29848 2.29848C1.96508 2.63188 1.77778 3.08406 1.77778 3.55556V28.4444C1.77778 28.9159 1.96508 29.3681 2.29848 29.7015C2.63188 30.0349 3.08406 30.2222 3.55556 30.2222H21.3333C21.8048 30.2222 22.257 30.0349 22.5904 29.7015C22.9238 29.3681 23.1111 28.9159 23.1111 28.4444V3.55556C23.1111 3.08406 22.9238 2.63188 22.5904 2.29848C22.257 1.96508 21.8048 1.77778 21.3333 1.77778H3.55556ZM0 3.55556C0 2.61256 0.374602 1.70819 1.0414 1.0414C1.70819 0.374602 2.61256 0 3.55556 0H21.3333C22.2763 0 23.1807 0.374602 23.8475 1.0414C24.5143 1.70819 24.8889 2.61256 24.8889 3.55556V28.4444C24.8889 29.3874 24.5143 30.2918 23.8475 30.9586C23.1807 31.6254 22.2763 32 21.3333 32H3.55556C2.61256 32 1.70819 31.6254 1.0414 30.9586C0.374602 30.2918 0 29.3874 0 28.4444V3.55556Z" fill="#F6830A"/>
<path fill-rule="evenodd" clip-rule="evenodd" d="M12.4445 8.00022C12.4445 7.76447 12.5381 7.53838 12.7048 7.37168C12.8715 7.20498 13.0976 7.11133 13.3334 7.11133H20.4445C20.6802 7.11133 20.9063 7.20498 21.073 7.37168C21.2397 7.53838 21.3334 7.76447 21.3334 8.00022C21.3334 8.23597 21.2397 8.46206 21.073 8.62876C20.9063 8.79546 20.6802 8.88911 20.4445 8.88911H13.3334C13.0976 8.88911 12.8715 8.79546 12.7048 8.62876C12.5381 8.46206 12.4445 8.23597 12.4445 8.00022ZM12.4445 11.5558C12.4445 11.32 12.5381 11.0939 12.7048 10.9272C12.8715 10.7605 13.0976 10.6669 13.3334 10.6669H20.4445C20.6802 10.6669 20.9063 10.7605 21.073 10.9272C21.2397 11.0939 21.3334 11.32 21.3334 11.5558C21.3334 11.7915 21.2397 12.0176 21.073 12.1843C20.9063 12.351 20.6802 12.4447 20.4445 12.4447H13.3334C13.0976 12.4447 12.8715 12.351 12.7048 12.1843C12.5381 12.0176 12.4445 11.7915 12.4445 11.5558ZM12.4445 19.5558C12.4445 19.32 12.5381 19.0939 12.7048 18.9272C12.8715 18.7605 13.0976 18.6669 13.3334 18.6669H20.4445C20.6802 18.6669 20.9063 18.7605 21.073 18.9272C21.2397 19.0939 21.3334 19.32 21.3334 19.5558C21.3334 19.7915 21.2397 20.0176 21.073 20.1843C20.9063 20.351 20.6802 20.4447 20.4445 20.4447H13.3334C13.0976 20.4447 12.8715 20.351 12.7048 20.1843C12.5381 20.0176 12.4445 19.7915 12.4445 19.5558ZM12.4445 23.1113C12.4445 22.8756 12.5381 22.6495 12.7048 22.4828C12.8715 22.3161 13.0976 22.2224 13.3334 22.2224H20.4445C20.6802 22.2224 20.9063 22.3161 21.073 22.4828C21.2397 22.6495 21.3334 22.8756 21.3334 23.1113C21.3334 23.3471 21.2397 23.5732 21.073 23.7399C20.9063 23.9066 20.6802 24.0002 20.4445 24.0002H13.3334C13.0976 24.0002 12.8715 23.9066 12.7048 23.7399C12.5381 23.5732 12.4445 23.3471 12.4445 23.1113ZM5.33338 19.5558V22.2224H8.00005V19.5558H5.33338ZM4.44449 17.778H8.88893C9.12468 17.778 9.35078 17.8716 9.51747 18.0383C9.68417 18.205 9.77782 18.4311 9.77782 18.6669V23.1113C9.77782 23.3471 9.68417 23.5732 9.51747 23.7399C9.35078 23.9066 9.12468 24.0002 8.88893 24.0002H4.44449C4.20874 24.0002 3.98265 23.9066 3.81595 23.7399C3.64925 23.5732 3.5556 23.3471 3.5556 23.1113V18.6669C3.5556 18.4311 3.64925 18.205 3.81595 18.0383C3.98265 17.8716 4.20874 17.778 4.44449 17.778ZM10.4063 7.37177C10.5729 7.53846 10.6665 7.76452 10.6665 8.00022C10.6665 8.23592 10.5729 8.46197 10.4063 8.62866L6.22227 12.8127L3.81605 10.4064C3.73115 10.3244 3.66343 10.2264 3.61684 10.1179C3.57026 10.0095 3.54574 9.89282 3.54471 9.7748C3.54369 9.65677 3.56618 9.53972 3.61087 9.43048C3.65556 9.32124 3.72157 9.22199 3.80503 9.13853C3.88849 9.05507 3.98773 8.98907 4.09698 8.94437C4.20622 8.89968 4.32326 8.87719 4.44129 8.87822C4.55932 8.87924 4.67596 8.90376 4.7844 8.95035C4.89285 8.99694 4.99094 9.06465 5.07293 9.14955L6.22227 10.2989L9.14938 7.37177C9.31607 7.20513 9.54212 7.11152 9.77782 7.11152C10.0135 7.11152 10.2396 7.20513 10.4063 7.37177Z" fill="#F6830A"/>
</svg>
