<svg width="31" height="32" viewBox="0 0 31 32" fill="none" xmlns="http://www.w3.org/2000/svg">
<path d="M14.544 28.8C14.736 29.952 15.136 31.024 15.696 32H3.2C1.424 32 0 30.576 0 28.8V3.2C0 2.35131 0.337142 1.53737 0.937258 0.937258C1.53737 0.337142 2.35131 0 3.2 0H22.4C23.2487 0 24.0626 0.337142 24.6627 0.937258C25.2629 1.53737 25.6 2.35131 25.6 3.2V17.744C25.072 17.664 24.544 17.6 24 17.6C23.456 17.6 22.928 17.664 22.4 17.744V3.2H14.4V16L10.4 12.4L6.4 16V3.2H3.2V28.8H14.544ZM30.4 27.2L25.6 22.4V25.6H19.2V28.8H25.6V32L30.4 27.2Z" fill="#F6620D"/>
</svg>
