<svg width="40" height="32" viewBox="0 0 40 32" fill="none" xmlns="http://www.w3.org/2000/svg">
<path d="M20.1778 22.4889L25.1378 17.5289C25.2596 17.4046 25.3423 17.2474 25.3755 17.0766C25.4088 16.9058 25.3913 16.729 25.325 16.5681C25.2588 16.4072 25.1467 16.2693 25.0029 16.1715C24.859 16.0737 24.6895 16.0202 24.5156 16.0178H21.3333V1.77778C21.3333 0.8 20.5333 0 19.5556 0C18.5778 0 17.7778 0.8 17.7778 1.77778V16H14.5956C13.7956 16 13.4044 16.96 13.9733 17.5111L18.9333 22.4711C19.2711 22.8267 19.84 22.8267 20.1778 22.4889ZM35.5556 0H26.6489C25.6889 0 24.8889 0.8 24.8889 1.76C24.8889 2.73778 25.6889 3.52 26.6489 3.52H33.7778C34.7556 3.52 35.5556 4.32 35.5556 5.29778V26.6844C35.5556 27.6622 34.7556 28.4622 33.7778 28.4622H5.33333C4.35556 28.4622 3.55556 27.6622 3.55556 26.6844V5.31556C3.55556 4.33778 4.35556 3.53778 5.33333 3.53778H12.4622C13.4222 3.53778 14.2222 2.73778 14.2222 1.77778C14.2222 1.30935 14.0374 0.859834 13.7078 0.526943C13.3783 0.194051 12.9306 0.00468432 12.4622 0H3.55556C1.6 0 0 1.6 0 3.55556V28.4444C0 30.4 1.6 32 3.55556 32H35.5556C37.5111 32 39.1111 30.4 39.1111 28.4444V3.55556C39.1111 1.6 37.5111 0 35.5556 0Z" fill="#F65F0D"/>
</svg>
